PathFileType	4	(X/Y/Z)	C:/Users/beibeiliu/ov580/test_trc/User3\sequence.13_training_dense_right.trc
DataRate	CameraRate	NumFrames	NumMarkers	Units	OrigDataRate	OrigDataStartFrame	OrigNumFrames
120	120	25	19	mm	120	1	85
Frame#	Time	ThumbCMC			ThumbMCP			ThumbIP			ThumbTip			IndexMCP			IndexPIP			IndexTip			MiddleMCP			MiddlePIP			MiddleTip			RingMCP			RingPIP			RingTip			PinkyMCP			PinkyPIP			PinkyTip			BackHand1			BackHand2			BackHand3	
		X0	Y0	Z0	X1	Y1	Z1	X2	Y2	Z2	X3	Y3	Z3	X4	Y4	Z4	X5	Y5	Z5	X6	Y6	Z6	X7	Y7	Z7	X8	Y8	Z8	X9	Y9	Z9	X10	Y10	Z10	X11	Y11	Z11	X12	Y12	Z12	X13	Y13	Z13	X14	Y14	Z14	X15	Y15	Z15	X16	Y16	Z16	X17	Y17	Z17	X18	Y18	Z18	
0	0	135.53	28.975	30.9182	111.387	17.3612	8.43367	98.2825	6.01424	-16.7602	92.0455	-4.88521	-35.794	148.57	41.5883	-45.0092	138.653	36.4745	-73.7397	128.863	32.0276	-93.412	178.239	37.4996	-50.2116	172.134	34.3727	-78.4308	170.769	23.7915	-109.376	194.413	27.7919	-41.9485	197.242	25.6178	-68.3801	201.325	17.7546	-95.2586	211.659	13.7978	-24.838	223.27	9.29834	-44.2242	233.996	3.33969	-61.8382	195.101	37.5764	8.02455	196.263	41.9866	38.9833	164.809	49.6646	22.7226	
1	0.00833333	132.972	29.3099	26.5348	115.401	17.1166	9.84839	99.555	6.70794	-17.743	87.9939	-3.89593	-32.7024	147.394	40.8717	-44.3797	135.512	38.3652	-72.5104	130.217	29.5473	-96.4456	173.527	38.0154	-48.7737	170.043	33.6239	-81.9202	168.739	23.8635	-110.949	191.244	28.9154	-43.7784	199.952	24.4882	-64.7106	198.568	18.6658	-94.5533	209.382	13.2054	-23.9751	222.366	9.3918	-45.0278	229.117	4.25877	-66.2043	193.813	36.7093	8.28277	195.677	40.5906	38.6615	164.019	50.79	19.826	
2	0.0166667	132.372	30.1736	32.0968	116.051	17.1801	7.60269	98.5645	7.57212	-16.6802	91.377	-2.53761	-34.1921	147.954	40.7041	-44.7043	135.597	38.8956	-68.4319	131.397	30.6133	-93.202	173.808	37.8234	-53.7124	169.948	33.8373	-81.237	168.871	23.1351	-111.959	194.028	27.6007	-42.0783	196.047	25.6933	-64.7353	198.877	18.0678	-93.0033	210.068	14.4381	-24.8784	221.169	8.75331	-42.5333	228.813	5.49149	-62.1617	195.218	36.309	7.25867	199.499	40.1244	35.9832	166.724	50.6373	21.4604	
3	0.025	131.521	30.176	29.1507	113.548	17.8988	10.2454	99.5175	7.39742	-18.2275	89.6149	-3.63268	-35.1571	146.378	41.4599	-42.5463	135.159	37.5869	-72.4414	132.439	29.9116	-94.9006	178.057	36.9277	-51.4759	174.221	32.4563	-82.0552	171.821	22.5607	-109.811	193.03	29.3295	-43.6375	197.801	25.7885	-68.6392	197.768	18.641	-93.6146	209.76	14.3091	-23.7742	219.577	9.76528	-40.9673	230.948	5.21241	-65.5431	193.221	39.0009	7.15342	197.517	38.7529	38.8386	162.995	50.5774	17.9677	
4	0.0333333	130.431	31.1473	27.4759	114.561	17.8713	8.73611	99.2448	7.66668	-17.3148	91.3416	-4.19215	-36.6677	147.594	42.4421	-46.7674	136.012	40.1408	-69.8987	133.374	30.7889	-94.3423	173.834	39.726	-48.3227	172.427	33.6841	-82.0293	169.747	25.7004	-108.656	191.952	29.1679	-39.2023	194.953	27.5531	-69.6946	198.205	20.3505	-95.6114	210.635	14.3664	-21.5737	221.533	12.0312	-46.0721	230.187	5.22988	-66.782	193.369	39.0725	10.3701	200.504	40.573	38.7822	167.685	49.6322	21.9698	
5	0.0416667	131.482	30.8161	26.017	116.964	17.9555	7.28561	102.114	7.84046	-14.2856	93.9782	-2.89928	-34.9858	145.478	44.7145	-45.0387	140.379	40.3378	-73.0165	127.91	33.375	-96.7509	176.972	41.522	-48.8193	175.911	36.9064	-79.1857	169.721	27.1517	-107.462	191.942	33.1014	-43.1656	198.444	29.8468	-67.4501	195.428	21.3367	-92.6487	213.388	17.5249	-25.6268	219.325	15.2735	-44.9925	229.749	5.13911	-70.8354	197.844	38.6214	7.73102	198.04	40.8144	35.9816	167.849	50.7165	18.3519	
6	0.05	134.871	31.0541	27.0893	114.668	20.932	7.82267	99.2584	11.5711	-18.6752	93.3817	-0.0412887	-37.6477	148.382	48.5459	-44.8074	137.105	44.9342	-72.371	135.073	34.1495	-95.6127	175.259	47.0223	-49.3333	173.326	40.7089	-79.3791	167.718	24.946	-108.225	196.283	36.1007	-42.8464	198.304	31.396	-69.0036	194.364	17.4926	-93.0219	210.047	20.3549	-24.7932	220.298	13.4515	-50.0817	219.304	-0.692596	-74.2293	195.938	42.369	11.3476	196.933	41.1765	39.0939	166.893	52.3403	20.5485	
7	0.0583333	135.762	34.6908	31.7629	118.26	25.9027	5.78669	105.285	18.4114	-20.8548	100.446	8.97553	-44.1827	150.39	57.0641	-43.4827	143.401	48.6602	-73.4027	134.546	34.7526	-95.3743	178.42	50.9554	-50.0101	171.977	42.2319	-80.0998	162.416	14.4479	-103.643	196.773	38.8469	-43.6113	195.557	29.6529	-70.9963	181.585	10.7021	-87.425	209.186	22.5986	-25.2518	211.921	15.7439	-51.1331	202.534	-6.28939	-71.2007	198.289	46.05	8.50072	200.174	41.3616	42.2317	168.113	56.8331	26.0042	
8	0.0666667	140.787	38.623	27.8707	121.404	31.1882	5.22571	112.244	25.5617	-21.2707	107.517	16.9848	-45.2608	155.716	60.6617	-42.9694	145.518	52.9454	-70.71	137.141	34.4177	-86.6621	179.154	53.6672	-47.894	166.893	37.4239	-77.9807	151.103	10.7427	-83.4699	193.129	41.5969	-39.6907	187.008	27.9631	-67.2715	167.49	-1.68804	-69.6688	207.377	23.644	-29.2284	198.434	12.5943	-53.5561	184.01	-11.3443	-56.5869	204.301	45.1708	11.1346	204.918	39.258	40.0995	174.133	56.9342	28.9303	
9	0.075	139.318	40.9221	33.4056	122.908	33.5754	4.01172	113.618	30.0699	-22.6895	112.753	22.5591	-49.1115	159.607	61.0349	-41.7872	145.429	53.2454	-66.0163	132.392	26.513	-79.1655	173.974	53.6845	-49.8415	159.552	30.868	-71.5695	141.777	3.23467	-61.8101	191.284	38.2583	-40.6291	177.898	20.1867	-62.5693	158.29	-3.56985	-47.3632	205.372	20.0227	-31.6901	189.454	5.97677	-50.4545	167.994	-11.0596	-39.4922	199.583	44.6047	13.9522	204.914	37.1648	39.4224	178.12	57.7615	31.2513	
10	0.0833333	141.891	41.4576	30.2516	121.3	36.9981	1.55952	111.261	31.9386	-25.7703	115.469	23.3865	-50.8291	158.25	62.797	-38.1289	142.672	48.5092	-67.3037	132.786	24.1082	-74.084	173.715	48.1375	-48.7953	158.531	26.0449	-66.4913	140.781	0.409349	-43.8539	188.072	32.5364	-44.5202	171.51	11.4218	-56.5436	155.285	-3.24716	-30.4235	201.232	15.5544	-32.9342	181.302	1.10931	-45.2427	162.024	-10.7069	-21.3483	200.161	43.5691	15.234	204.067	36.4843	43.6414	176.241	55.5167	31.4086	
11	0.0916667	139.305	40.1404	33.8985	125.761	36.0536	3.72529	113.846	33.6594	-29.2029	115.893	24.7367	-53.7486	156.174	62.3887	-40.4787	143.713	46.6447	-66.369	127.175	20.7913	-68.9644	171.4	48.3594	-45.3531	153.342	22.0622	-62.2678	136.793	2.19017	-33.5084	185.487	30.3744	-43.437	168.341	7.09223	-50.9085	154.288	0.991146	-19.1181	193.747	16.2705	-34.9657	174.295	-3.76901	-39.7764	163.576	-9.50391	-12.2968	202.102	42.7333	9.89558	202.471	34.8293	41.8732	173.066	58.0597	27.9693	
12	0.1	137.95	41.4539	33.093	125.145	36.3527	3.4254	114.251	33.0778	-23.6151	115.735	25.7639	-49.1918	156.978	62.2892	-42.6949	144.656	45.2259	-65.5221	126.602	24.5993	-67.6049	170.183	45.8847	-49.5296	153.515	17.6742	-58.201	141.112	2.24577	-28.3475	183.589	28.5198	-43.4832	166.496	2.55431	-45.852	153.611	2.35046	-15.5105	195.701	12.8685	-34.8591	173.553	-3.25173	-37.6768	163.131	-5.54813	-9.23304	202.384	44.0678	12.0795	202.286	33.445	41.3216	175.222	57.9513	32.3316	
13	0.108333	142.848	40.0286	30.6501	125.007	35.9254	3.05413	116.794	34.0836	-24.4568	115.542	25.7046	-47.5066	161.149	59.1658	-38.973	147.218	44.0344	-65.123	126.514	18.1306	-66.5372	176.764	43.588	-45.4684	156.135	19.8891	-59.3153	143.327	1.28903	-24.2988	186.222	25.2484	-43.7228	164.747	6.87566	-46.7582	156.836	-0.481693	-16.7263	199.386	11.4367	-31.4488	174.682	-5.79816	-35.1426	164.47	-5.58469	-10.8319	202.365	41.8977	15.4271	203.702	33.3845	41.0122	175.637	57.722	32.9834	
14	0.116667	141.161	40.6559	30.833	121.844	36.6071	4.96627	115.722	34.3712	-24.249	117.529	26.707	-52.486	159.402	60.7598	-42.574	146.213	42.2689	-65.2837	127.264	21.1416	-66.553	172.505	45.3375	-46.1096	157.148	20.4287	-59.2336	142.682	2.6787	-24.9771	187.723	25.5282	-42.0294	165.47	2.88611	-44.9331	156.32	2.34116	-12.9346	198.284	12.471	-30.6653	178.631	-7.57951	-37.3027	165.68	-6.00992	-6.4224	205.082	39.7833	13.793	202.595	34.3496	43.5536	175.874	56.416	29.0033	
15	0.125	139.777	42.8521	30.955	124.235	37.1245	4.35483	114.212	35.7384	-23.6973	116.419	28.0781	-48.356	158.853	62.6489	-41.107	143.417	45.6019	-64.924	125.878	23.2169	-66.9338	172.584	44.9709	-47.7394	151.223	21.5324	-57.4053	140.083	4.69052	-26.6578	184.015	30.1759	-42.481	170.167	4.40713	-48.1322	157.903	0.820942	-14.0656	198.405	13.4281	-31.6712	178.043	-5.21439	-37.0583	166.047	-5.49287	-8.01153	206.616	40.3728	15.2637	206.256	33.5422	41.5752	175.987	55.6749	32.7911	
16	0.133333	142.138	41.359	32.3893	122.82	39.9765	3.75889	117.818	38.9133	-26.7901	118.275	31.4178	-50.7672	158.859	66.2725	-40.1301	143.493	52.7459	-63.6835	128.939	24.5165	-67.4585	173.656	51.6194	-43.9432	153.603	28.0133	-58.5558	145.176	5.70103	-28.9954	186.597	35.3745	-37.8157	167.316	9.91197	-47.0032	157.123	5.64737	-14.7208	200.394	17.6877	-29.6669	176.041	0.440135	-36.3779	166.899	-1.30166	-7.7351	204.658	43.6012	17.4084	205.272	33.7687	46.0841	176.06	55.6669	35.0038	
17	0.141667	139.54	44.6607	31.728	127.293	42.1453	0.89718	116.037	42.8066	-24.9481	119.433	38.6678	-49.4274	162.13	72.5792	-37.2817	148.97	60.235	-62.8519	134.012	35.875	-68.3519	176.361	57.1795	-44.2349	157.461	33.1659	-58.2097	144.446	12.4198	-29.6544	187	43.9222	-39.2759	171.575	16.0117	-46.726	159.448	11.3686	-19.0597	199.35	27.4263	-31.9724	179.72	7.64292	-37.8331	171.628	-1.45169	-10.8224	205.83	47.8601	19.5894	204.144	35.6795	49.5927	172.562	59.5347	37.7682	
18	0.15	138.074	43.4247	33.8138	129.092	44.666	-0.882915	119.868	45.7141	-27.4815	125.316	45.202	-54.7976	161.149	82.4262	-31.3801	153.966	72.5329	-59.9357	142.685	42.4354	-71.5041	177.919	69.8091	-42.0809	167.72	47.1167	-59.8388	156.877	16.5466	-34.5605	197.124	52.3637	-34.646	180.874	30.0494	-50.9051	166.985	16.6204	-21.1341	207.304	38.6419	-27.2306	187.369	18.3823	-39.5063	179.92	6.36754	-16.4023	203.158	57.576	21.8025	200.963	40.7921	48.7518	174.716	62.1326	39.1858	
19	0.158333	141.833	44.6063	26.6662	135.529	43.1712	-5.61706	128.922	42.2613	-31.4846	133.538	40.4871	-58.9627	164.798	80.3929	-33.6	157.59	69.5732	-64.5546	146.835	43.3101	-74.1115	187.755	67.3661	-44.7984	174.559	43.5087	-62.2719	162.23	14.8091	-37.5657	200.552	52.9117	-40.2404	185.46	28.9108	-51.3112	173.408	16.0785	-20.7249	212.27	41.3906	-26.7492	198.388	19.982	-41.2367	181.588	9.39514	-15.5959	205.549	62.6138	18.6344	205.804	47.3535	45.9464	176.254	63.364	37.5997	
20	0.166667	146.116	41.5818	20.0868	134.471	33.3058	-6.25167	125.385	27.5544	-37.2744	138.676	20.7215	-59.4762	171.206	63.698	-46.1687	159.397	48.4469	-72.5572	149.656	19.7651	-75.6012	187.375	53.8023	-49.1546	177.78	25.7119	-66.6705	159.752	0.723839	-35.4747	201.589	37.9079	-44.3221	186.706	10.2957	-49.6052	177.709	1.85076	-20.581	217.473	24.7231	-31.755	202.172	3.01954	-38.0888	186.267	-2.35153	-10.9503	211.567	55.3617	15.8489	208.383	48.008	44.1047	173.701	65.1869	23.6256	
21	0.175	142.429	39.2159	16.5926	132.542	22.0557	-9.39545	120.525	9.62858	-35.1459	127.791	-5.7669	-52.3063	167.371	36.8384	-56.1949	155.898	18.7568	-74.5447	139.573	-12.8736	-67.6373	183.604	22.3305	-55.0064	163.946	-6.02089	-60.9222	150.335	-18.9869	-26.7343	197.095	6.64445	-44.3323	180.495	-16.0204	-42.3579	167.015	-14.875	-10.6318	207.864	-3.67847	-30.2902	187.318	-20.2285	-26.9721	173.845	-12.8108	-1.10092	205.824	44.1893	7.42885	205.759	42.3521	36.8788	178.642	57.1497	17.4336	
22	0.183333	141.153	41.2911	17.4306	123.352	24.0227	-0.858279	110.099	6.99401	-27.6065	112.066	-14.9394	-40.2783	156.402	17.0099	-54.4378	137.76	-5.39057	-65.7593	117.722	-24.5843	-54.0541	170.122	-1.90723	-46.8594	144.61	-25.6547	-48.4368	126.816	-24.1887	-10.9185	178.999	-16.2308	-33.5278	152.927	-34.3165	-28.1834	145.333	-21.4679	3.74403	182.925	-25.6241	-20.9083	161.591	-38.0258	-9.96095	151.498	-16.0921	10.7841	201.48	23.4671	-0.212255	201.677	31.4098	34.8452	178.5	46.6343	8.77519	
23	0.191667	143.992	53.2642	18.8964	118.968	40.7517	0.368703	101.861	25.8149	-17.1876	90.8507	2.1452	-29.6602	145.081	12.8531	-46.6338	114.422	0.0479855	-59.132	91.5504	-9.66119	-43.0894	146.753	-5.21761	-42.6993	114.407	-19.6159	-39.0776	100.12	-9.63975	-5.09554	148.974	-22.7844	-26.716	120.019	-30.2449	-13.7836	120.478	-5.77636	11.304	152.73	-33.5636	-11.1502	128.814	-33.1981	-2.94936	131.783	-10.333	21.2522	189.517	4.53946	1.62061	199.566	17.6139	32.929	181.271	40.7096	9.78786	
24	0.2	155.089	57.5983	13.527	128.017	58.0588	-3.58203	102.689	53.736	-20.6081	85.9658	28.649	-29.3036	131.509	19.5168	-48.393	102.023	17.6508	-55.4697	76.512	23.1332	-38.2635	129.575	-1.64151	-38.8045	94.8555	2.99525	-37.5609	87.489	19.5336	-0.283437	124.164	-12.7242	-27.0209	97.5035	-8.62235	-13.2982	103.798	10.4053	11.235	128.069	-24.5551	-6.66869	102.724	-11.7418	2.39628	112.561	2.63141	23.2446	176.743	-2.35098	1.70823	190.56	6.87901	33.4277	181.255	35.5709	6.90243	
